# xmcd
#
# Track frame offsets: 
#        150
#        17687
#        34679
#        51863
#        65443
#        83363
#        99294
#        113966
#        130116
#        147820
#        163849
#        182890
#        200068
#
# Disc length: 2916 seconds
#
# Revision: 0
# Processed by: cddbd v1.5.2PL0 Copyright (c) Steve Scherf et al.
# Submitted via: ExactAudioCopy v0.95b3
#
DISCID=ab0b620d
DTITLE=The Wilkinsons - Greatest Hits ... and Then Some
DYEAR=2008
DGENRE=Country
TTITLE0=26 Cents
TTITLE1=Fly (The Angel Song)
TTITLE2=Paper Doll
TTITLE3=Boy Oh Boy
TTITLE4=When I'm Old
TTITLE5=You Heal Me
TTITLE6=L.A.
TTITLE7=1999
TTITLE8=Diamonds
TTITLE9=Jimmy's Got a Girlfriend
TTITLE10=Your Car
TTITLE11=Shame on Me
TTITLE12=Little Girl
EXTD=
EXTT0=
EXTT1=
EXTT2=
EXTT3=
EXTT4=
EXTT5=
EXTT6=
EXTT7=
EXTT8=
EXTT9=
EXTT10=
EXTT11=
EXTT12=
PLAYORDER=
